<svg xmlns="http://www.w3.org/2000/svg" xmlns:xlink="http://www.w3.org/1999/xlink" viewBox="0,0,256,256" width="48px" height="48px"><defs><radialGradient cx="24" cy="9.999" r="32.253" gradientUnits="userSpaceOnUse" id="color-1"><stop offset="0" stop-color="#8c9eff"></stop><stop offset="0.368" stop-color="#889af8"></stop><stop offset="0.889" stop-color="#7e8fe6"></stop><stop offset="1" stop-color="#7b8ce1"></stop></radialGradient></defs><g fill="none" fill-rule="nonzero" stroke="none" stroke-width="1" stroke-linecap="butt" stroke-linejoin="miter" stroke-miterlimit="10" stroke-dasharray="" stroke-dashoffset="0" font-family="none" font-weight="none" font-size="none" text-anchor="none" style="mix-blend-mode: normal"><g transform="scale(5.33333,5.33333)"><path d="M40.107,12.15c-0.065,-0.102 -0.139,-0.182 -0.236,-0.255c-0.355,-0.267 -5.744,-3.889 -9.865,-3.889c-0.258,0 -0.825,1.1 -1.016,1.987c-1.994,0.002 -7.996,-0.003 -9.993,0.006c-0.236,-0.838 -0.844,-1.99 -1.008,-1.99c-4.122,0 -9.487,3.606 -9.861,3.887c-0.097,0.073 -0.17,0.153 -0.236,0.255c-0.708,1.107 -5.049,8.388 -5.892,21.632c-0.009,0.142 0.04,0.289 0.135,0.395c4.593,5.143 11.183,5.751 12.589,5.822c0.167,0.008 0.335,-0.059 0.427,-0.199l1.099,-1.665l-3.246,-1.54v-1.609c6.329,2.817 15.356,3.104 21.993,0.017l0.027,1.588l-3.205,1.65l1.028,1.559c0.092,0.14 0.26,0.208 0.427,0.199c1.407,-0.072 7.996,-0.679 12.588,-5.823c0.095,-0.106 0.144,-0.253 0.135,-0.395c-0.841,-13.244 -5.182,-20.525 -5.89,-21.632z" fill="url(#color-1)"></path><ellipse cx="30.5" cy="26" rx="4.5" ry="5" fill="#000000" opacity="0.05"></ellipse><ellipse cx="30.5" cy="26" rx="4" ry="4.5" fill="#000000" opacity="0.05"></ellipse><ellipse cx="30.5" cy="26" rx="3.5" ry="4" fill="#ffffff"></ellipse><ellipse cx="17.5" cy="26" rx="4.5" ry="5" fill="#000000" opacity="0.05"></ellipse><ellipse cx="17.5" cy="26" rx="4" ry="4.5" fill="#000000" opacity="0.05"></ellipse><ellipse cx="17.5" cy="26" rx="3.5" ry="4" fill="#ffffff"></ellipse></g></g></svg>